<svg xmlns="http://www.w3.org/2000/svg" viewBox="0 0 24 24" fill="currentColor" aria-hidden="true">
  <path fill-rule="evenodd" d="M12 2C6.477 2 2 6.478 2 12.005c0 4.425 2.865 8.178 6.839 9.504.5.092.683-.217.683-.483 0-.237-.009-.866-.014-1.7-2.782.604-3.369-1.342-3.369-1.342-.455-1.157-1.11-1.466-1.11-1.466-.908-.62.069-.607.069-.607 1.004.07 1.532 1.032 1.532 1.032.892 1.53 2.341 1.088 2.91.833.091-.647.35-1.088.636-1.338-2.22-.252-4.555-1.112-4.555-4.948 0-1.092.39-1.986 1.029-2.686-.103-.253-.446-1.272.098-2.65 0 0 .84-.269 2.75 1.026A9.564 9.564 0 0 1 12 6.844c.851.004 1.707.115 2.507.338 1.908-1.295 2.747-1.026 2.747-1.026.546 1.378.202 2.397.1 2.65.64.7 1.027 1.594 1.027 2.686 0 3.845-2.339 4.693-4.566 4.941.359.31.679.92.679 1.855 0 1.338-.012 2.417-.012 2.746 0 .268.18.58.688.481A10.01 10.01 0 0 0 22 12.005C22 6.478 17.523 2 12 2z" clip-rule="evenodd"/>
</svg>
